# xmcd
#
# Track frame offsets: 
#        183
#        19805
#        33678
#        55153
#        72758
#        87285
#        107885
#        124230
#        142248
#        156780
#        174998
#        198928
#        216715
#        238213
#        258535
#
# Disc length: 3746 seconds
#
# Revision: 1
# Processed by: cddbd v1.5.2PL0 Copyright (c) Steve Scherf et al.
# Submitted via: ExactAudioCopy v0.99pb4
#
DISCID=e60ea00f
DTITLE=Слава Медяник - Шкурный вопрос
DYEAR=1996
DGENRE=Chanson
TTITLE0=Карусель
TTITLE1=Кралечка
TTITLE2=Маленький русский остров
TTITLE3=Звёзды хрустальные
TTITLE4=Ханыга
TTITLE5=Воображение
TTITLE6=Я сам по себе, ты сама по себе
TTITLE7=Тёплая шаль
TTITLE8=Дзынзара
TTITLE9=Шкурный вопрос
TTITLE10=Вьюжится от холода ночь...
TTITLE11=Сашка
TTITLE12=Последнее письмо
TTITLE13=Табачный дым
TTITLE14=Вьюга
EXTD=1996 SeaGate Studio Production\n1996 Russian Supply, Inc.2306 Con
EXTD=ey Island Avenue, \nBrooklyn, NY 11223, U.S.A.
EXTT0=
EXTT1=
EXTT2=
EXTT3=
EXTT4=
EXTT5=
EXTT6=
EXTT7=
EXTT8=
EXTT9=
EXTT10=
EXTT11=
EXTT12=
EXTT13=
EXTT14=
PLAYORDER=
